<?xml version="1.0" encoding="UTF-8"?><svg id="Layer_1" xmlns="http://www.w3.org/2000/svg" viewBox="0 0 995.5 198.15"><defs><style>.cls-1{fill:#fff;}.cls-2{fill:#73000a;}</style></defs><g><path class="cls-1" d="M263.39,32.9l.24-1.88,6.03,.14,5.46-.14,.24,1.88-3.91,.61v18.84c0,6.17-2.5,10.32-11.87,12.53-9.89,0-13.38-5.04-13.38-12.53v-18.84s-4-.61-4-.61l.24-1.88,6.45,.14,6.92-.14,.24,1.88-3.72,.61v19.27c0,5.75,2.45,9.09,7.68,9.09,4.85,0,7.49-3.34,7.49-9.23v-19.13s-4.1-.61-4.1-.61Z"/><path class="cls-1" d="M290.13,61.59l3.77,.61-.19,1.88-5.09-.14-5.56,.14-.24-1.88,4-.61v-27.84s-3.86-.85-3.86-.85l.24-1.88,4.15,.14,4.19-.14,15.88,21.58,1.13,3.34v-22.42s-3.77-.61-3.77-.61l.19-1.88,5.09,.14,5.56-.14,.24,1.88-4,.61v30.62s-3.2,0-3.2,0l-17.57-24.45-.94-3.72v25.63Z"/><path class="cls-1" d="M330.26,63.94l-6.74,.14-.24-1.93,4-.61v-28.03s-4-.61-4-.61l.24-1.88,6.74,.14,6.74-.14,.24,1.88-4,.61v28.03s4,.61,4,.61l-.24,1.93-6.74-.14Z"/><path class="cls-1" d="M359.84,64.79l-11.92-31.33-3.44-.57,.24-1.88,7.3,.14,5.98-.14,.24,1.88-3.77,.61,8.06,22.47,.14,2.83,8.95-25.3-3.91-.61,.24-1.88,5.32,.14,4.9-.14,.24,1.88-3.34,.57-11.49,30.2-3.72,1.13Z"/><path class="cls-1" d="M409.68,31.02l.47,8.71h-1.93s-2.73-6.12-2.73-6.12l-11.82-.14v12.15s6.08-.19,6.08-.19l1.88-4.99h1.98s-.47,6.12-.47,6.12l.47,6.5h-1.98s-1.88-4.99-1.88-4.99l-6.08-.19v13.76s12.34-.14,12.34-.14l3.16-6.36h2.12s-1.6,8.95-1.6,8.95l-19.22-.14-6.5,.14-.24-1.88,4-.61v-28.08s-4-.61-4-.61l.24-1.88,6.5,.14,19.22-.14Z"/><path class="cls-1" d="M428.3,48.96v12.63s3.82,.61,3.82,.61l-.24,1.88-6.55-.14-6.74,.14-.24-1.88,4-.61v-28.08s-4-.61-4-.61l.24-1.88,6.74,.14,9.42-.14c5.94-.05,10.6,2.69,10.6,8.2s-4.85,7.87-9.99,9.04l4.05,2.12,7.63,11.16,2.4,.71-.19,1.84-4.43-.14-3.53,.14-9.61-14.6-.57-.52h-2.83Zm0-2.4h3.2c4.33,0,7.35-2.83,7.35-7.02,0-4.24-2.78-6.36-6.36-6.41l-4.19,.33v13.1Z"/><path class="cls-1" d="M459.58,58.9c1.46,1.7,3.86,3.06,6.5,3.06,3.67,0,5.94-2.26,5.94-5.56,0-2.78-1.79-4.57-4.62-5.84l-5.7-2.64c-3.63-1.65-6.31-3.91-6.31-8.06,0-4.8,4.15-8.06,11.68-9.66,3.16,0,6.64,1.04,9.09,2.73v6.78s-2.78,0-2.78,0l-1.37-4.29c-1.22-1.32-2.83-2.4-5.56-2.4-3.58,0-5.65,1.93-5.65,4.71,0,2.36,1.65,3.86,4.1,4.99l5.75,2.59c4.38,2.07,7.02,4.43,6.97,8.86,0,4.85-3.58,8.71-12.34,10.69-4.1,0-7.25-1.27-9.89-3.2l-1.04-6.93h3.63s1.6,4.15,1.6,4.15Z"/><path class="cls-1" d="M491.95,63.94l-6.74,.14-.24-1.93,4-.61v-28.03s-4-.61-4-.61l.24-1.88,6.74,.14,6.74-.14,.24,1.88-4,.61v28.03s4,.61,4,.61l-.24,1.93-6.74-.14Z"/><path class="cls-1" d="M528.16,64.09l-7.96-.14-8.15,.14-.24-1.88,5.42-.61v-28.08s-6.5,.09-6.5,.09l-2.26,6.26h-2.07v-8.86s13.9,.14,13.9,.14l13.71-.14v8.86s-2.12,0-2.12,0l-2.21-6.26-6.5-.09v28.08s5.23,.61,5.23,.61l-.24,1.88Z"/><path class="cls-1" d="M560.7,51.18l.05,10.41,5.28,.61-.24,1.88-8.01-.14-8.2,.14-.24-1.88,5.46-.61v-10.55s-10.41-17.62-10.41-17.62l-3.44-.57,.24-1.84,6.69,.14,6.55-.14,.24,1.84-3.77,.61,7.87,13.28,.24,2.03,8.2-15.31-3.86-.61,.24-1.84,5.42,.14,5.04-.14,.24,1.84-3.44,.52-10.13,17.81Z"/><path class="cls-1" d="M630.97,46.8c0,10.41-5.23,15.97-17.43,18.09-9.85,0-16.39-7.07-16.39-16.58,0-10.41,5.23-15.97,17.43-18.09,9.85,0,16.39,7.07,16.39,16.58Zm-16.25,15.26c6.83,0,9.75-5.98,9.75-13.71,0-6.93-3.01-15.31-11.02-15.31-6.83,0-9.8,5.94-9.8,13.66,0,7.11,3.11,15.36,11.07,15.36Z"/><path class="cls-1" d="M638.03,64.09l-.24-1.88,4-.61v-28.08s-4-.61-4-.61l.24-1.88,6.5,.14,19.22-.14,.47,8.86h-1.93s-2.73-6.26-2.73-6.26l-11.82-.14v12.81s6.08-.19,6.08-.19l1.88-4.95h1.98s-.47,6.12-.47,6.12l.47,6.5h-1.98s-1.88-4.99-1.88-4.99l-6.08-.19v13s5.65,.61,5.65,.61l-.24,1.88-8.62-.14-6.5,.14Z"/></g><g><rect class="cls-2" x="0" y="0" width="198.15" height="198.15"/><path class="cls-1" d="M194.65,3.5V194.65H3.5V3.5H194.65m3.5-3.5H0V198.15H198.15V0h0Z"/></g><path class="cls-1" d="M143.22,113.17v-10.11s-11.09-13.55-26.61-13.55c-11.87,0-17.34,6.98-17.34,6.98,0,0-5.47-6.98-17.34-6.98-15.51,0-26.61,13.55-26.61,13.55v10.11s12.66-20.57,31.12-20.57c6.98,0,12.84,6.25,12.84,6.25,0,0,5.86-6.25,12.84-6.25,18.46,0,31.12,20.57,31.12,20.57Zm-36.61,15.29h.03l3.16-7.66h-3.16l3.16-7.66h-3.16l2.54-6.15c6.3,2.33,10.69,11.23,10.69,11.23v-7.38c-5.2-7.14-13.64-5.36-13.64-5.36l-3.16,7.66h3.16l-3.16,7.66h3.16l-3.16,7.66h-.09v27.18l5.26,8.41h3.83l-5.16-8.79h7.99v-1.89h-8.28v-24.91Zm-.18-28.91c18.7,0,24.41,17.82,24.41,17.82v-9.52c-6.12-7.89-11.98-9.45-17.18-9.52-4.13-.05-7.23,1.21-7.23,1.21Zm30.48,24.91l1.57-3.64h-20.44l1.57,3.64h17.3Zm28.81,17.38v3.45h-7.07v-8.28h-3.63v8.28h-7.07v-13.2h-3.64v13.2h-7.4v-18.32h-17.34v37.23h3.64v-33.59h10.07v33.59h3.63v-17.01h7.4v17.01h3.64v-17.01h7.07v17.01h3.63v-17.01h7.07v17.01h3.64v-22.35h-3.64ZM99.27,68c0-2.2,9.21-21,25.31-25.55v-8.61c-12.08,3.07-25.31,23.44-25.31,31.49,0-8.05-13.23-28.42-25.31-31.49v8.61c16.1,4.55,25.31,23.35,25.31,25.55Zm0,9.27s10.84-22.14,39.32-22.14v-8.75c-26.93,0-39.32,27.47-39.32,27.47,0,0-12.4-27.47-39.32-27.47v8.75c28.48,0,39.32,22.14,39.32,22.14Zm-6.96,43.54h3.16l-3.16-7.66h3.16l-3.16-7.66s-8.44-1.79-13.64,5.36v7.38s4.39-8.9,10.69-11.23l2.54,6.15h-3.16l3.16,7.66h-3.16l3.16,7.66h.03v24.91h-8.28v1.89h7.99l-5.16,8.79h3.83l5.26-8.41v-27.18h-.09l-3.16-7.66Zm-23.69-50.15c17.89,0,30.65,14.89,30.65,14.89,0,0,12.76-14.89,30.65-14.89,10.17,0,17.03,4.42,17.03,4.42l.03-9.82s-7.34-2.29-13.43-2.29c-23.17,0-34.28,19.89-34.28,19.89,0,0-11.1-19.89-34.28-19.89-6.09,0-13.43,2.29-13.43,2.29l.03,9.82s6.86-4.42,17.03-4.42Zm30.65-14.91s.2-13.4,11.45-18.88c.06-4.37,.06-7.63,.06-7.63-11.12,5.62-11.51,20.36-11.51,20.36,0,0-.39-14.74-11.51-20.36,0,0,0,3.25,.06,7.63,11.25,5.48,11.45,18.88,11.45,18.88ZM61.62,124.46h17.3l1.57-3.64h-20.44l1.57,3.64Zm23.25-26.12c-5.2,.07-11.06,1.63-17.18,9.52v9.52s5.72-17.82,24.41-17.82c0,0-3.1-1.27-7.23-1.21Zm-6.05-15.48c12.86-.04,20.44,9.37,20.44,9.37,0,0,7.58-9.41,20.44-9.37,18.6,.16,32.25,16.96,32.25,16.96v-12.19s-11.09-9.37-28.51-9.37c-15.76,0-24.19,11.58-24.19,11.58,0,0-8.42-11.58-24.19-11.58-17.42,0-28.51,9.37-28.51,9.37v12.19s13.65-16.8,32.25-16.96Zm-17.21,62.43h-7.4v-13.2h-3.64v13.2h-7.07v-8.28h-3.63v8.28h-7.07v-3.45h-3.64v22.35h3.64v-17.01h7.07v17.01h3.63v-17.01h7.07v17.01h3.64v-17.01h7.4v17.01h3.63v-33.59h10.07v33.59h3.64v-37.23h-17.34v18.32Z"/><g><path class="cls-1" d="M254.48,152.7c3.72,4.32,9.83,7.79,16.55,7.79,9.35,0,15.11-5.76,15.11-14.15,0-7.08-4.56-11.63-11.75-14.87l-14.51-6.72c-9.23-4.2-16.07-9.95-16.07-20.51,0-12.23,10.55-20.51,29.74-24.58,8.03,0,16.91,2.64,23.14,6.96v17.27h-7.08l-3.48-10.91c-3.12-3.36-7.19-6.11-14.15-6.11-9.11,0-14.39,4.92-14.39,11.99,0,6,4.2,9.83,10.43,12.71l14.63,6.6c11.15,5.28,17.87,11.27,17.75,22.54,0,12.35-9.11,22.18-31.42,27.22-10.43,0-18.47-3.24-25.18-8.15l-2.64-17.63h9.23l4.08,10.55Z"/><path class="cls-1" d="M364.06,134.37c0,18.71-12.35,29.97-30.58,33.2-15.71,0-26.86-13.78-26.86-30.44,0-18.95,12.35-29.97,30.58-33.32,15.71,0,26.86,13.78,26.86,30.57Zm-27.22,26.85c8.03,0,12.47-9.94,12.47-23.13,0-16.67-6.72-27.93-15.59-27.93-8.15,0-12.47,9.94-12.47,23.13,0,15.59,6.48,27.93,15.59,27.93Z"/><path class="cls-1" d="M423.1,149.94c0,4.92,.6,6.84,1.56,8.75h5.52l.48,4.8-17.27,3.24-3.48-10.07-17.15,10.91c-15.23,0-18.83-5.04-18.83-19.07v-34.87l-7.67,.6-.6-5.28,14.99-3.24,7.19-.48v43.02c0,5.76,2.4,8.39,7.91,8.39,3.24,0,7.31-2.4,11.27-5.04l2.28-1.56v-36.43l-6.72,.6-.6-5.28,13.91-3.24,7.19-.48v44.7Z"/><path class="cls-1" d="M492.56,159.78l6,1.32-.6,4.8-11.99-.36-14.27,.36-.6-4.8,7.67-1.32V90.25l-7.79,.24-.6-4.8,15.59-3.6,6.59-.48v33.58l17.87-11.39c14.75,0,18.11,5.16,18.11,20.15v35.83l8.27,1.32-.6,4.8-14.27-.36-12.11,.36-.6-4.8,5.4-1.32v-37.03c0-5.64-2.64-8.15-7.08-8.15-3.48,0-7.67,2.52-11.75,5.04l-3.24,2.04v38.11Z"/><g><path class="cls-1" d="M638.56,139.75l-2.76,19.19c-6.84,3.12-16.92,7.32-28.43,8.99-18.22,0-40.44-14.87-40.44-42.69s19.7-42.13,43.44-45.57c12.11,0,21,5.04,26.64,8.75v18.11h-7.43l-3.84-11.39c-3.12-3.84-7.69-8.51-17.52-8.51-16.43,0-24.73,12.59-24.73,35.38,0,19.91,7.82,38.73,27.01,38.73,7.43,0,10.93-3.96,14.64-7.31l6.24-13.67h7.19Z"/><path class="cls-1" d="M668.62,103.8c15.95,0,20.51,4.08,20.51,18.83v29.47c0,5.04,.72,7.07,1.92,8.99h5.88l.6,4.8-17.75,1.68-3.84-10.31-14.03,10.31c-10.67,0-18.23-6-18.23-15.71,0-4.68,1.8-8.15,4.68-11.51l26.86-8.75v-9.81c0-7.19-1.2-10.55-6.59-10.55-3,0-6.36,.96-8.75,2.04l-1.92,10.43h-12.35v-10.07l23.02-9.83Zm6.59,32.83l-15.23,6.24c-1.8,1.92-2.52,4.68-2.52,7.32,0,6,3.36,8.15,6.48,8.15s5.52-1.68,7.08-2.76l4.2-2.88v-16.07Z"/><path class="cls-1" d="M721.41,122.39l13.19-17.99h11.98l-3.33,14.03h-8.65c-2.88,.84-7.2,4.44-10.43,8.15l-2.04,2.4v30.55l12.71,1.2-.6,5.16-18.71-.36-14.15,.36-.6-4.8,7.79-1.32v-46.14l-7.79,.6-.6-4.92,14.99-3.6,5.52-.48,.72,17.15Z"/><path class="cls-1" d="M802.43,134.37c0,18.71-12.35,29.97-30.58,33.2-15.71,0-26.86-13.78-26.86-30.44,0-18.95,12.35-29.97,30.58-33.32,15.71,0,26.86,13.78,26.86,30.57Zm-27.22,26.85c8.03,0,12.47-9.94,12.47-23.13,0-16.67-6.72-27.93-15.59-27.93-8.15,0-12.47,9.94-12.47,23.13,0,15.59,6.48,27.93,15.59,27.93Z"/><path class="cls-1" d="M817.93,165.53l-14.27,.36-.6-4.8,7.67-1.32V90.25l-7.79,.24-.6-4.92,15.59-3.6,6.59-.48v78.28l8.27,1.32-.6,4.8-14.27-.36Z"/><path class="cls-1" d="M853.07,165.53l-14.27,.36-.6-4.8,7.79-1.32v-46.26l-7.79,.48-.6-4.8,15.59-3.48,6.6-.48v54.54l8.15,1.32-.6,4.8-14.27-.36Zm-6.48-82.74l9.83-.72,3.6,.72,.72,7.31-1.44,6.24-9.71,.72-3.6-.72-.72-7.32,1.32-6.24Z"/><path class="cls-1" d="M888.53,165.53l-14.27,.36-.6-4.8,7.79-1.32v-46.14l-7.91,.6-.6-4.92,15.59-3.6,6.12-.36,.36,9.95,17.99-11.51c14.75,0,18.23,4.68,18.23,19.07v36.91l8.27,1.32-.6,4.8-14.27-.36-12.35,.36-.6-4.8,5.52-1.32v-37.03c0-5.64-2.52-8.15-7.19-8.15-3.96,0-7.79,2.52-11.63,5.04l-3.12,2.16v37.99l5.88,1.32-.6,4.8-11.99-.36Z"/><path class="cls-1" d="M966.6,103.8c15.95,0,20.51,4.08,20.51,18.83v29.47c0,5.04,.72,7.07,1.92,8.99h5.88l.6,4.8-17.75,1.68-3.84-10.31-14.03,10.31c-10.67,0-18.23-6-18.23-15.71,0-4.68,1.8-8.15,4.68-11.51l26.86-8.75v-9.81c0-7.19-1.2-10.55-6.59-10.55-3,0-6.36,.96-8.75,2.04l-1.92,10.43h-12.35v-10.07l23.02-9.83Zm6.59,32.83l-15.23,6.24c-1.8,1.92-2.52,4.68-2.52,7.32,0,6,3.36,8.15,6.48,8.15s5.52-1.68,7.08-2.76l4.2-2.88v-16.07Z"/></g><path class="cls-1" d="M467.22,155.78c-2.52,1.18-4.78,1.96-7.58,1.96-4.56,0-6.24-3.48-6.24-7.32v-39.31h13.82v-5.88h-13.94v-14.75h-4.2l-9.23,8.27v5.76h-5.41l-4.44,4.56v2.04h9.61v40.51c0,11.63,4.8,15.95,16.91,15.95l9.91-5.42,.78-6.38Z"/></g></svg>